subject20_rfs_trial11_ground_reaction
version=1
nRows=32
nColumns=19
inDegrees=no
endheader
time	ground_force_r_vx	ground_force_r_vy	ground_force_r_vz	ground_force_r_px	ground_force_r_py	ground_force_r_pz	ground_torque_r_x	ground_torque_r_y	ground_torque_r_z	ground_force_l_vx	ground_force_l_vy	ground_force_l_vz	ground_force_l_px	ground_force_l_py	ground_force_l_pz	ground_torque_l_x	ground_torque_l_y	ground_torque_l_z
0.362000	-58.698698	1222.631722	-18.405260	0.517844	0.000000	-0.178794	0.000000	4.209381	0.000000	0.000000	0.000000	0.000000	16680.674361	0.000000	12581.108837	0.000000	0.000000	0.000000
0.362500	-57.608236	1223.988105	-17.943089	0.518173	0.000000	-0.178833	0.000000	4.250079	0.000000	0.000000	0.000000	0.000000	16589.239446	0.000000	12511.847254	0.000000	0.000000	0.000000
0.363000	-56.514977	1225.257526	-17.476140	0.518502	0.000000	-0.178873	0.000000	4.291584	0.000000	0.000000	0.000000	0.000000	16498.139289	0.000000	12442.840342	0.000000	0.000000	0.000000
0.363500	-55.421114	1226.437715	-17.005955	0.518834	0.000000	-0.178912	0.000000	4.334004	0.000000	0.000000	0.000000	0.000000	16407.373277	0.000000	12374.087630	0.000000	0.000000	0.000000
0.364000	-54.329392	1227.531976	-16.534721	0.519165	0.000000	-0.178951	0.000000	4.377343	0.000000	0.000000	0.000000	0.000000	16316.940796	0.000000	12305.588650	0.000000	0.000000	0.000000
0.364500	-53.242366	1228.547602	-16.064662	0.519495	0.000000	-0.178989	0.000000	4.421013	0.000000	0.000000	0.000000	0.000000	16226.841233	0.000000	12237.342932	0.000000	0.000000	0.000000
0.365000	-52.163004	1229.491947	-15.598183	0.519822	0.000000	-0.179027	0.000000	4.463844	0.000000	0.000000	0.000000	0.000000	16137.073972	0.000000	12169.350008	0.000000	0.000000	0.000000
0.365500	-51.095141	1230.368201	-15.138403	0.520147	0.000000	-0.179064	0.000000	4.504415	0.000000	0.000000	0.000000	0.000000	16047.638402	0.000000	12101.609408	0.000000	0.000000	0.000000
0.366000	-50.042580	1231.174638	-14.688733	0.520471	0.000000	-0.179099	0.000000	4.541442	0.000000	0.000000	0.000000	0.000000	15958.533907	0.000000	12034.120664	0.000000	0.000000	0.000000
0.366500	-49.007771	1231.909230	-14.250951	0.520795	0.000000	-0.179134	0.000000	4.574371	0.000000	0.000000	0.000000	0.000000	15869.759873	0.000000	11966.883306	0.000000	0.000000	0.000000
0.367000	-47.991471	1232.574431	-13.824268	0.521121	0.000000	-0.179167	0.000000	4.603567	0.000000	0.000000	0.000000	0.000000	15781.315687	0.000000	11899.896865	0.000000	0.000000	0.000000
0.367500	-46.993407	1233.176944	-13.407094	0.521448	0.000000	-0.179198	0.000000	4.629609	0.000000	0.000000	0.000000	0.000000	15693.200735	0.000000	11833.160871	0.000000	0.000000	0.000000
0.368000	-46.013024	1233.724896	-12.999447	0.521776	0.000000	-0.179228	0.000000	4.652645	0.000000	0.000000	0.000000	0.000000	15605.414403	0.000000	11766.674857	0.000000	0.000000	0.000000
0.368500	-45.049276	1234.225878	-12.603821	0.522102	0.000000	-0.179257	0.000000	4.672513	0.000000	0.000000	0.000000	0.000000	15517.956077	0.000000	11700.438353	0.000000	0.000000	0.000000
0.369000	-44.099209	1234.684785	-12.224378	0.522427	0.000000	-0.179285	0.000000	4.689196	0.000000	0.000000	0.000000	0.000000	15430.825143	0.000000	11634.450890	0.000000	0.000000	0.000000
0.369500	-43.156977	1235.102894	-11.865278	0.522750	0.000000	-0.179311	0.000000	4.702879	0.000000	0.000000	0.000000	0.000000	15344.020987	0.000000	11568.711999	0.000000	0.000000	0.000000
0.370000	-42.214881	1235.481457	-11.529438	0.523073	0.000000	-0.179334	0.000000	4.713421	0.000000	0.000000	0.000000	0.000000	15257.542996	0.000000	11503.221210	0.000000	0.000000	0.000000
0.370500	-41.265378	1235.825705	-11.218540	0.523395	0.000000	-0.179353	0.000000	4.720058	0.000000	0.000000	0.000000	0.000000	15171.390555	0.000000	11437.978055	0.000000	0.000000	0.000000
0.371000	-40.302773	1236.143438	-10.933721	0.523716	0.000000	-0.179369	0.000000	4.722109	0.000000	0.000000	0.000000	0.000000	15085.563050	0.000000	11372.982064	0.000000	0.000000	0.000000
0.371500	-39.324469	1236.440275	-10.676176	0.524034	0.000000	-0.179381	0.000000	4.719849	0.000000	0.000000	0.000000	0.000000	15000.059868	0.000000	11308.232769	0.000000	0.000000	0.000000
0.372000	-38.330783	1236.717337	-10.447823	0.524348	0.000000	-0.179390	0.000000	4.714310	0.000000	0.000000	0.000000	0.000000	14914.880395	0.000000	11243.729700	0.000000	0.000000	0.000000
0.372500	-37.323144	1236.973159	-10.252017	0.524658	0.000000	-0.179395	0.000000	4.706324	0.000000	0.000000	0.000000	0.000000	14830.024017	0.000000	11179.472388	0.000000	0.000000	0.000000
0.373000	-36.302529	1237.206006	-10.093376	0.524964	0.000000	-0.179399	0.000000	4.696064	0.000000	0.000000	0.000000	0.000000	14745.490119	0.000000	11115.460365	0.000000	0.000000	0.000000
0.373500	-35.268765	1237.412511	-9.976068	0.525267	0.000000	-0.179401	0.000000	4.683362	0.000000	0.000000	0.000000	0.000000	14661.278089	0.000000	11051.693161	0.000000	0.000000	0.000000
0.374000	-34.220118	1237.585589	-9.901813	0.525568	0.000000	-0.179403	0.000000	4.668159	0.000000	0.000000	0.000000	0.000000	14577.387312	0.000000	10988.170307	0.000000	0.000000	0.000000
0.374500	-33.153436	1237.717259	-9.869505	0.525870	0.000000	-0.179405	0.000000	4.650697	0.000000	0.000000	0.000000	0.000000	14493.817173	0.000000	10924.891334	0.000000	0.000000	0.000000
0.375000	-32.064718	1237.804029	-9.876497	0.526174	0.000000	-0.179408	0.000000	4.631326	0.000000	0.000000	0.000000	0.000000	14410.567060	0.000000	10861.855772	0.000000	0.000000	0.000000
0.375500	-30.949621	1237.848148	-9.920306	0.526478	0.000000	-0.179411	0.000000	4.610105	0.000000	0.000000	0.000000	0.000000	14327.636359	0.000000	10799.063154	0.000000	0.000000	0.000000
0.376000	-29.804098	1237.854398	-9.999419	0.526779	0.000000	-0.179414	0.000000	4.586796	0.000000	0.000000	0.000000	0.000000	14245.024455	0.000000	10736.513010	0.000000	0.000000	0.000000
0.376500	-28.625087	1237.826584	-10.112772	0.527076	0.000000	-0.179414	0.000000	4.561426	0.000000	0.000000	0.000000	0.000000	14162.730734	0.000000	10674.204870	0.000000	0.000000	0.000000
0.377000	-27.410411	1237.765931	-10.259221	0.527366	0.000000	-0.179411	0.000000	4.534571	0.000000	0.000000	0.000000	0.000000	14080.754584	0.000000	10612.138265	0.000000	0.000000	0.000000
0.377500	-26.158293	1237.671943	-10.437792	0.527649	0.000000	-0.179404	0.000000	4.506835	0.000000	0.000000	0.000000	0.000000	13999.095389	0.000000	10550.312728	0.000000	0.000000	0.000000
